<?xml version="1.0" standalone="no"?>
<!DOCTYPE svg PUBLIC "-//W3C//DTD SVG 20010904//EN"
 "http://www.w3.org/TR/2001/REC-SVG-20010904/DTD/svg10.dtd">
<svg version="1.0" xmlns="http://www.w3.org/2000/svg"
 width="616.000000pt" height="215.000000pt" viewBox="0 0 616.000000 215.000000"
 preserveAspectRatio="xMidYMid meet">

<g transform="translate(0.000000,215.000000) scale(0.100000,-0.100000)"
fill="#000000" stroke="none">
<path d="M2240 1125 l0 -685 840 0 840 0 0 685 0 685 -840 0 -840 0 0 -685z
m1520 0 l0 -575 -705 0 -705 0 0 575 0 575 705 0 705 0 0 -575z"/>
<path d="M2423 1653 l-33 -4 0 -130 0 -129 660 0 660 0 0 135 0 135 -80 0 -80
0 0 -55 c0 -48 3 -57 23 -64 12 -5 35 -23 51 -40 l30 -31 -124 0 -124 0 34 35
c19 19 40 35 47 35 9 0 13 17 13 60 l0 60 -129 0 c-72 0 -132 -4 -135 -9 -11
-18 6 -100 23 -106 9 -4 29 -22 44 -41 l29 -34 -123 0 -123 0 39 40 c21 22 45
40 53 40 10 0 12 14 10 53 l-3 52 -132 3 -133 3 0 -56 c0 -38 4 -55 13 -55 7
0 31 -18 52 -40 l39 -40 -129 0 -129 0 34 35 c19 19 42 37 52 41 14 4 18 16
18 60 l0 55 -132 -3 -133 -3 -3 -52 c-3 -44 -6 -53 -22 -53 -16 0 -19 9 -22
53 l-3 52 -50 1 c-27 1 -65 -1 -82 -3z"/>
<path d="M2397 1333 c-4 -3 -7 -170 -7 -370 l0 -363 660 0 660 0 0 370 0 370
-80 0 -80 0 0 -55 c0 -38 4 -55 13 -55 7 0 31 -18 52 -40 l39 -40 -129 0 -129
0 39 40 c21 22 45 40 52 40 9 0 13 17 13 55 l0 55 -129 0 c-72 0 -132 -4 -135
-9 -10 -15 6 -101 18 -101 7 0 30 -18 51 -40 l39 -40 -127 0 c-70 0 -127 4
-127 8 0 15 66 72 83 72 14 0 17 10 17 55 l0 55 -135 0 -135 0 0 -55 c0 -38 4
-55 13 -55 7 0 31 -18 52 -40 l39 -40 -129 0 -129 0 39 40 c21 22 45 40 52 40
9 0 13 17 13 55 l0 55 -135 0 -135 0 0 -55 c0 -48 -2 -55 -20 -55 -18 0 -20 7
-20 55 l0 55 -78 0 c-43 0 -82 -3 -85 -7z m572 -279 c18 -14 36 -35 42 -45 9
-18 4 -19 -118 -19 l-127 0 44 45 c39 39 50 45 86 45 31 0 51 -7 73 -26z m331
-19 l44 -45 -127 0 c-70 0 -127 3 -127 7 0 4 17 24 37 45 32 33 43 38 83 38
41 0 50 -5 90 -45z m312 8 c21 -20 38 -41 38 -45 0 -4 -54 -8 -120 -8 -66 0
-120 3 -120 7 0 4 17 24 37 45 32 33 43 38 82 38 39 0 51 -5 83 -37z m-629
-163 l42 -39 -130 0 -130 0 45 39 c37 33 52 40 88 40 36 0 49 -6 85 -40z m312
0 l39 -40 -124 0 -124 0 39 40 c34 35 45 40 85 40 40 0 51 -5 85 -40z m318 0
l42 -39 -125 -1 -124 0 39 40 c34 35 45 40 82 40 37 0 50 -6 86 -40z m-628
-160 l39 -40 -129 0 -129 0 39 40 c35 36 44 40 90 40 46 0 55 -4 90 -40z m315
0 l45 -39 -130 -1 -129 0 39 40 c34 35 45 40 85 40 38 0 52 -6 90 -40z m315 0
l39 -40 -129 0 -130 1 45 39 c38 33 52 39 90 40 41 0 51 -5 85 -40z"/>
</g>
</svg>
